<svg width="285" height="51" fill="none" xmlns="http://www.w3.org/2000/svg"><path d="M27.4.8H25c-.1 0-.1 0-.1.1l.6 7c0 .1 0 .1.1.1h1.1c.1 0 .1 0 .1-.1l.6-7c.1 0 0-.1 0-.1zM8.9 3.4l-2 1.2c-.1 0-.1.1 0 .2l4 5.8h.2l1-.5V10l-3-6.4c-.1-.3-.1-.3-.2-.2zM43.5 3.4l2 1.2c.1 0 .1.1 0 .2l-4 5.8h-.2l-1-.5V10l3-6.4c.1-.3.1-.3.2-.2zM46.8 35.6h-4.2v4.2h4.2v-4.2zM8.7 35.6H4.5v4.2h4.2v-4.2z" fill="#00737E"/><path d="M51.2 44.1V28.6l-12-11.9h-26L.2 29.2v20.6h51v-5.7zm-1.1-15v19.7H38.4V35.6h-4.2v13.2h-7.4V29.2L39 18l11.1 11.1zm-24.4.1v19.5H1.3V29.2h24.4zM66.4 30.9l-.2-1.3H66v20.2h-4.1V19.7h5.4l2.6 13.8.2 1.6h.1l.2-1.6L73 19.7h5.4v30.1h-4.1V29.6h-.2c-1 6.8-2 13.5-3 20.2h-1.9l-2.8-18.9zM85.5 19.7h5.4l4.6 30.1h-4.3l-.8-6.2h-4.3l-.8 6.2H81l4.5-30.1zm2.8 9h-.2c-.5 3.4-.9 6.9-1.4 10.3h3l-1.3-9.5-.1-.8zM103.5 37.1h-1.2v12.7h-4.4V19.7h4.4c5.3 0 7.5 3 7.5 8.7 0 3-.8 5.7-2.5 6.8l2.8 14.6h-4.4l-2.2-12.7zm2.1-8.5c0-3.1-.9-4.5-3.3-4.5V33c2.3 0 3.3-1.4 3.3-4.4zM117.5 30.2h.2l3.9-10.5h4.3l-4.1 9.9 4.6 20.2h-4.3L119 36.7l-.1-.6h-.1c-.4 1-.9 2-1.3 3.1v10.7h-4.4V19.7h4.4v10.5zM127.3 19.7h12.8v4.5h-4.2v25.6h-4.4V24.2h-4.2v-4.5zM147.9 19.4c2-.2 4 .9 4.9 2.6.8 1.7 1.2 3.5 1.1 5.3l-4.4.4c0-1.7-.2-4.3-1.8-4.3-1.1 0-1.5 1.2-1.5 3 .1 1.2.5 2.3 1.1 3.2.7 1.2 1.5 2.3 2.4 3.6 1 1.5 2 3 2.8 4.6.8 1.4 1.3 3.1 1.3 4.7 0 4.4-1.6 7.6-6.1 7.6-5.3 0-6.4-3.8-6.4-8.8l4.4-.4c0 2.1.1 5.1 2.1 5.1 1.3 0 1.8-1.4 1.8-3.3 0-1.7-1.4-3.8-2.3-5.1-1.7-2.4-4.1-5.7-5-8.8-.2-.8-.4-1.6-.4-2.4.1-3.7 2-7 6-7zM164.1 43.6v-4.1h4.1v4.1c.1 2.1-.8 4.2-2.5 5.5-2.7 1.8-6.3 1.1-8.2-1.5-.1-.2-.3-.4-.4-.7-.5-1-.7-2.1-.7-3.3V25.9c.1-3.7 2-6.5 5.9-6.5 2.2-.1 4.3 1.2 5.2 3.3.5 1 .7 2.1.7 3.2V30h-4.1v-4.1c0-1.2-.4-2.2-1.7-2.2-1.3 0-1.4 1.2-1.6 2.2v17.8c.1 1.1.5 2.2 1.6 2.2 1.4 0 1.7-1 1.7-2.3zM175.8 36.7v13.1h-4.4V19.7h4.4v12.5h3.4V19.7h4.4v30.1h-4.4V36.7h-3.4zM190.2 49.8l-4.1-30.1h4.1l1.7 15.7.1 1h.3c.7-5.5 1.3-11.1 2-16.7h3.2c.7 5.5 1.3 11.1 2 16.7h.4c.6-5.6 1.2-11.1 1.8-16.7h4.1l-4.1 30.1h-3.4c-.8-5.3-1.5-10.7-2.3-16-.8 5.4-1.5 10.7-2.3 16h-3.5zM211 19.7h5.4l4.6 30.1h-4.3l-.8-6.2h-4.3l-.8 6.2h-4.3l4.5-30.1zm1.7-6.7v4h-3.8v-4h3.8zm1.1 15.7h-.2c-.5 3.4-.9 6.9-1.4 10.3h3l-1.3-9.5-.1-.8zm4.7-15.7v4h-3.8v-4h3.8zM229 37.1h-1.2v12.7h-4.4V19.7h4.4c5.3 0 7.5 3 7.5 8.7 0 3-.8 5.7-2.5 6.8l2.8 14.6h-4.4L229 37.1zm2.1-8.5c0-3.1-.9-4.5-3.3-4.5V33c2.3 0 3.3-1.4 3.3-4.4zM243.1 30.9l-.1-1.3h-.2v20.2h-4.1V19.7h5.4l2.6 13.8.2 1.6h.1l.2-1.6 2.6-13.8h5.4v30.1H251V29.6h-.2c-1 6.8-2 13.5-3 20.2H246l-2.9-18.9zM269 19.7v4.5h-5.7v7.9h4.1V37h-4.1v8.3h5.7v4.5h-10.1V19.7H269zM277.5 37.1h-1.2v12.7h-4.4V19.7h4.4c5.3 0 7.5 3 7.5 8.7 0 3-.8 5.7-2.5 6.8l2.8 14.6h-4.4l-2.2-12.7zm2.1-8.5c0-3.1-.9-4.5-3.3-4.5V33c2.3 0 3.3-1.4 3.3-4.4z" fill="#00737E"/></svg>